<?xml version="1.0" encoding="UTF-8"?><svg xmlns="http://www.w3.org/2000/svg" viewBox="0 0 5560.3898111 4720.3899006"><defs><style>.cls-1{fill:#0b9bf3;stroke-width:0px;}</style></defs><g id="back_1_Kopie"><path class="cls-1" d="m2056.9609677,4246.8608398c-107.4326172,0-214.7973633-10.8232422-319.1113281-32.1699219-101.6621094-20.8017578-201.6655273-51.8447266-297.2333984-92.265625-93.8168945-39.6806641-184.3115234-88.7988281-268.9707031-145.9902344-83.8408203-56.6425781-162.684082-121.6953125-234.3398438-193.3505859-71.6533203-71.6542969-136.7055664-150.4970703-193.3481445-234.3378906-57.1879883-84.6503906-106.3066406-175.1455078-145.9912109-268.9707031-40.4189453-95.5585938-71.4624023-195.5634766-92.2675781-297.2333984-21.3457031-104.3173828-32.1694336-211.6826172-32.1694336-319.1113281s10.8237305-214.7939453,32.1694336-319.1113281c20.8022461-101.6611328,51.8447266-201.6640625,92.265625-297.2329102,39.6865234-93.8276367,88.8051758-184.3222656,145.9926758-268.9702148,56.6450195-83.8466797,121.6962891-162.6899414,193.3476562-234.3398438,71.6547852-71.6538086,150.4975586-136.7060547,234.3393555-193.3481445,84.6542969-57.1914062,175.1489258-106.3100586,268.9702148-145.9916992,95.5639648-40.4213867,195.5673828-71.4643555,297.2333984-92.2666016,104.3129883-21.3466797,211.6777344-32.1704102,319.1103516-32.1704102,107.4301758,0,214.7949219,10.8237305,319.1113281,32.1694336,21.4116211,4.3813477,43.1132812,9.3027344,64.5048828,14.6279297,1.6186523.4033203,3.2436523.5966797,4.8432617.5966797,8.5668945,0,16.4379883-5.5395508,19.0878906-14.0712891,15.394043-49.5620117,33.3798828-98.7626953,53.4589844-146.2353516,39.6855469-93.8266602,88.8046875-184.3217773,145.9926758-268.9707031,56.640625-83.8413086,121.6918945-162.6845703,193.3466797-234.3398438,71.6552734-71.6538086,150.4985352-136.7055664,234.3398438-193.3481445,84.6533203-57.1899414,175.1474609-106.3085938,268.9707031-145.9916992,95.5615234-40.4204102,195.5654297-71.4633789,297.2333984-92.2666016C3762.161163,10.8237305,3869.5254208,0,3976.958038,0c107.4296875,0,214.7939453,10.8237305,319.1113281,32.1694336,101.671875,20.8051758,201.6757812,51.8481445,297.2324219,92.2661133,93.8242188,39.684082,184.3183594,88.8027344,268.9697266,145.9921875,83.8457031,56.6430664,162.6884766,121.6953125,234.3408203,193.347168,71.6542969,71.6547852,136.7060547,150.4980469,193.3486328,234.3408203,57.1904297,84.6518555,106.3095703,175.1464844,145.9921875,268.9692383,40.4189453,95.5600586,71.4619141,195.5639648,92.2666016,297.2333984,21.3466797,104.3173828,32.1699219,211.6816406,32.1699219,319.1113281,0,107.4326172-10.8232422,214.7973633-32.1699219,319.1113281-20.8027344,101.6650391-51.8457031,201.668457-92.265625,297.2319336-39.6835938,93.8251953-88.8027344,184.3203125-145.9912109,268.9716797-56.6474609,83.8457031-121.6992188,162.6884766-193.3486328,234.3378906-71.6591797,71.6591797-150.5029297,136.7119141-234.3408203,193.3486328-84.6455078,57.1875-175.1396484,106.3066406-268.9697266,145.9931641-95.5654297,40.4208984-195.5693359,71.4638672-297.2324219,92.2666016-104.3154297,21.3466797-211.6806641,32.1699219-319.1103516,32.1699219-107.4326172,0-214.7978516-10.8232422-319.1113281-32.1699219-21.4121094-4.3818359-43.1142578-9.3027344-64.5039062-14.6279297-1.6191406-.4033203-3.2441406-.5966797-4.84375-.5966797-8.5673828,0-16.4384766,5.5400391-19.0888672,14.0712891-15.3994141,49.5761719-33.3847656,98.7763672-53.4589844,146.2353516-39.6835938,93.8251953-88.8027344,184.3203125-145.9912109,268.9716797-56.6474609,83.8457031-121.6992188,162.6884766-193.3486328,234.3378906-71.65625,71.6572266-150.4990234,136.7099609-234.3393555,193.3486328-84.6474609,57.1875-175.1420898,106.3066406-268.9702148,145.9931641-95.5639648,40.4208984-195.5678711,71.4638672-297.2333984,92.2666016-104.3164062,21.3466797-211.6811523,32.1699219-319.1103516,32.1699219Zm-.0029297-3156.8608398c-106.7597656,0-213.4492188,10.7553711-317.105957,31.9667969-101.0205078,20.671875-200.387207,51.5175781-295.3417969,91.6791992-93.2319336,39.4350586-183.1542969,88.2426758-267.2680664,145.0688477-83.3139648,56.2851562-161.6621094,120.9282227-232.8671875,192.1328125-71.2016602,71.2016602-135.8442383,149.5498047-192.1323242,232.8671875-56.8251953,84.1118164-105.6333008,174.0332031-145.0683594,267.2670898-40.1616211,94.953125-71.0068359,194.3212891-91.6787109,295.3427734-21.2114258,103.6582031-31.9663086,210.3476562-31.9663086,317.1064453s10.7553711,213.4492188,31.9672852,317.1054688c20.6723633,101.0224609,51.5170898,200.390625,91.6787109,295.3427734,39.4321289,93.2294922,88.2402344,183.1523438,145.0683594,267.2695312,56.2856445,83.3125,120.9287109,161.6601562,192.1333008,232.8662109,71.2050781,71.2050781,149.5532227,135.8476562,232.8666992,192.1328125,84.1103516,56.8232422,174.0327148,105.6308594,267.2685547,145.0673828,94.9541016,40.1621094,194.3212891,71.0068359,295.3417969,91.6787109,103.6601562,21.2119141,210.3500977,31.9667969,317.1069336,31.9667969,106.7563477,0,213.4458008-10.7548828,317.105957-31.9667969,101.0214844-20.6728516,200.3886719-51.5175781,295.3417969-91.6796875,93.2333984-39.4345703,183.1552734-88.2431641,267.2680664-145.0683594,83.3144531-56.2851562,161.6630859-120.9287109,232.8671875-192.1328125,71.1992188-71.1992188,135.8417969-149.546875,192.1337891-232.8671875,56.828125-84.1201172,105.6357422-174.0429688,145.0664062-267.2695312,19.6757812-46.515625,37.3378906-94.7304688,52.4960938-143.3027344,1.6074219-5.1533203,1.0644531-10.7373047-1.5058594-15.4824219-2.5712891-4.7470703-6.9511719-8.2529297-12.1445312-9.7207031-62.8984375-17.7841797-125.1328125-39.6347656-184.9726562-64.9453125-35.2099609-14.8925781-70.46875-31.3632812-104.7958984-48.9550781-2.8574219-1.4648438-5.9873047-2.2011719-9.1220703-2.2011719-2.6865234,0-5.3759766.5410156-7.9033203,1.6279297-5.4775391,2.3564453-9.6181641,7.0332031-11.2919922,12.7558594-13.0947266,44.7578125-28.9677734,89.2822266-47.1777344,132.3369141-30.5507812,72.2333984-68.3701172,141.9111328-112.4072266,207.0976562-43.6162109,64.5585938-93.7036133,125.2636719-148.8706055,180.4316406-55.1674805,55.1679688-115.8730469,105.2548828-180.4306641,148.8681641-65.1777344,44.03125-134.8549805,81.8515625-207.0966797,112.4091797-150.3095703,63.5761719-309.9750977,95.8115234-474.5600586,95.8115234-164.5869141,0-324.2519531-32.2353516-474.5610352-95.8105469-72.2402344-30.5556641-141.9179688-68.375-207.0961914-112.4082031-64.5610352-43.6171875-125.2670898-93.7041016-180.4321289-148.8701172-55.1699219-55.1699219-105.2568359-115.8759766-148.8696289-180.4316406-44.0332031-65.1777344-81.8525391-134.8544922-112.4086914-207.0957031-63.5742188-150.3085938-95.8105469-309.9746094-95.8120117-474.5605469,0-164.5849609,32.2363281-324.25,95.8120117-474.5605469,30.5566406-72.2446289,68.3759766-141.9208984,112.4082031-207.0961914,43.6098633-64.5537109,93.6967773-125.2597656,148.8686523-180.4316406,55.1694336-55.1694336,115.8754883-105.2568359,180.4311523-148.8701172,65.1782227-44.0327148,134.8554688-81.8525391,207.0966797-112.4077148,150.3081055-63.574707,309.9736328-95.8105469,474.5600586-95.8120117,107.2709961,0,213.4716797,13.8583984,315.6513672,41.1914062,1.7026367.4555664,3.4399414.6791992,5.1674805.6791992,4.1147461,0,8.175293-1.2700195,11.5966797-3.7045898,4.8579102-3.4575195,7.9199219-8.9013672,8.3510742-14.8481445,4.9648438-68.4204102,14.3769531-136.8032227,27.9741211-203.25,7.0634766-34.5166016,15.4394531-69.3671875,24.8955078-103.5834961,1.4379883-5.2026367.7114258-10.765625-2.0141602-15.425293-2.7250977-4.6591797-7.2177734-8.019043-12.4580078-9.315918-20.5913086-5.0966797-41.4707031-9.8173828-62.0566406-14.0297852-103.6552734-21.2114258-210.3461914-31.9663086-317.1074219-31.9663086Zm0,364.2529297c-163.2431641.0014648-321.597168,31.9711914-470.6640625,95.0219727-71.6469727,30.3046875-140.7519531,67.8134766-205.394043,111.484375-64.0292969,43.2573242-124.2392578,92.9355469-178.9584961,147.6542969s-104.3974609,114.9291992-147.6538086,178.9594727c-43.6708984,64.640625-81.1796875,133.7446289-111.4838867,205.3920898-63.0522461,149.0751953-95.0224609,307.4296875-95.0224609,470.6660156.0014648,163.2412109,31.9716797,321.5966797,95.0224609,470.6640625,30.3051758,71.6484375,67.8139648,140.7529297,111.484375,205.3945312,43.2573242,64.0273438,92.9345703,124.2373047,147.6542969,178.9580078,54.7250977,54.7236328,114.9355469,104.4013672,178.9589844,147.6542969,64.6401367,43.6699219,133.7446289,81.1796875,205.3945312,111.4853516,149.0703125,63.0517578,307.4248047,95.0205078,470.6650391,95.0205078,163.2387695,0,321.5927734-31.9697266,470.6640625-95.0214844,71.6484375-30.3066406,140.7529297-67.8144531,205.394043-111.484375,64.027832-43.2568359,124.237793-92.9345703,178.9575195-147.6542969,54.7202148-54.7197266,104.3984375-114.9306641,147.6552734-178.9599609,43.6738281-64.6445312,81.1826172-133.75,111.484375-205.3935547,19.4482422-45.9804688,36.1748047-93.5605469,49.7148438-141.4169922,2.5292969-8.9394531-1.4306641-18.4423828-9.5585938-22.9423828-40.8798828-22.6308594-81.1269531-47.2919922-119.625-73.2998047-27.7451172-18.7451172-55.3759766-38.7324219-82.1259766-59.4072266-3.5551758-2.7480469-7.8696289-4.1757812-12.2329102-4.1757812-2.3544922,0-4.7231445.4160156-6.9951172,1.2636719-6.4814453,2.4208984-11.2514648,8.0195312-12.6118164,14.8027344-12.3334961,61.4863281-31.0166016,122.0498047-55.5317383,180.0078125-47.2939453,111.8134766-114.9970703,212.2314453-201.2290039,298.4648438-86.2338867,86.2333984-186.652832,153.9365234-298.465332,201.2294922-115.765625,48.9648438-238.7363281,73.7919922-365.4956055,73.7919922-126.7578125,0-249.7285156-24.8271484-365.4956055-73.7910156-111.8134766-47.2919922-212.2314453-114.9951172-298.465332-201.2304688-86.2324219-86.2304688-153.9355469-186.6474609-201.2294922-298.4628906-48.965332-115.7666016-73.7929688-238.7382812-73.7929688-365.4970703,0-126.7607422,24.8276367-249.7314453,73.7924805-365.4970703,47.2944336-111.8154297,114.9975586-212.2324219,201.2290039-298.4638672,86.2333984-86.2333984,186.6513672-153.9365234,298.4648438-201.2299805,115.7646484-48.9648438,238.7353516-73.7919922,365.4960938-73.7929688,109.9262695,0,217.4384766,18.7617188,319.5512695,55.762207,2.2163086.8032227,4.5214844,1.1967773,6.8115234,1.1967773,4.4213867,0,8.7885742-1.4658203,12.3662109-4.2802734,5.4306641-4.2719727,8.2719727-11.0444336,7.5146484-17.9116211-6.418457-58.2055664-9.6733398-117.3476562-9.6733398-175.7822266,0-21.6557617.4506836-43.6791992,1.3393555-65.4594727.3789062-9.2851562-5.6879883-17.6079102-14.6430664-20.0893555-104.4941406-28.9511719-213.2568359-43.6303711-323.2675781-43.6303711Zm.0009766,280.1943359c-125.4140625.0009766-247.0742188,24.5620117-361.6010742,73.0029297-110.6210938,46.7885742-209.9711914,113.7724609-295.2890625,199.0913086-85.3178711,85.3178711-152.3022461,184.6669922-199.0898438,295.2890625-48.440918,114.5253906-73.0024414,236.1855469-73.0024414,361.6005859,0,125.4140625,24.5615234,247.0732422,73.0029297,361.5996094,46.7895508,110.6230469,113.7734375,209.9726562,199.0908203,295.2910156,85.3164062,85.3154297,184.6665039,152.2998047,295.2890625,199.0898438,114.5239258,48.4394531,236.184082,73.0009766,361.6005859,73.0009766,125.4135742,0,247.0727539-24.5615234,361.6000977-73.0019531,110.621582-46.7880859,209.9711914-113.7724609,295.2895508-199.0908203s152.3017578-184.6679688,199.090332-295.2890625c27.7602539-65.6318359,47.878418-134.3671875,59.796875-204.296875,1.1992188-7.0380859-1.4438477-14.1816406-6.9355469-18.7441406-37.6142578-31.25-74.1176758-64.5273438-108.4951172-98.9052734-14.2373047-14.2363281-28.4619141-29.0214844-42.2797852-43.9443359-3.8598633-4.1679688-9.2128906-6.4130859-14.6801758-6.4130859-2.4101562,0-4.8422852.4365234-7.1791992,1.3359375-7.6396484,2.9404297-12.715332,10.2382812-12.8149414,18.4228516-1.144043,94.4462891-20.2539062,186.1425781-56.7983398,272.5439453-36.4389648,86.1513672-88.6015625,163.5195312-155.0390625,229.9560547-66.4370117,66.4365234-143.8051758,118.5996094-229.9545898,155.0390625-89.1923828,37.7255859-183.9365234,56.8535156-281.6000977,56.8535156-97.6625977,0-192.40625-19.1279297-281.6005859-56.8535156-86.1479492-36.4375-163.5161133-88.5996094-229.9550781-155.0390625-66.4370117-66.4365234-118.5996094-143.8037109-155.0390625-229.9541016-37.7250977-89.1943359-56.8540039-183.9384766-56.8540039-281.6005859,0-97.6630859,19.1289062-192.4072266,56.8540039-281.6005859,36.4384766-86.1494141,88.6010742-163.5166016,155.0390625-229.9541016,66.4384766-66.4389648,143.8056641-118.6015625,229.9545898-155.0395508,89.1938477-37.7260742,183.9379883-56.8549805,281.6000977-56.8549805,97.6625977,0,192.4057617,19.1289062,281.5991211,56.8540039,29.4208984,12.4433594,58.2841797,26.9755859,85.7875977,43.1914062,3.1469727,1.8554688,6.6572266,2.7714844,10.1547852,2.7714844,4.3325195,0,8.6450195-1.4047852,12.2260742-4.1699219,6.4731445-4.9980469,9.2509766-13.4335938,7.0141602-21.2993164-10.7817383-37.9262695-20.2167969-76.5458984-28.0419922-114.7875977-5.9038086-28.8491211-11.0805664-58.4038086-15.3852539-87.84375-1.0361328-7.0859375-5.78125-13.0776367-12.4418945-15.7080078-108.4306641-42.8271484-223.1308594-64.5429688-340.9125977-64.5429688Zm0,215.534668c-96.3168945,0-189.75,18.862793-277.7050781,56.0649414-84.9555664,35.9331055-161.2558594,87.3759766-226.7792969,152.8989258-65.5244141,65.5263672-116.9672852,141.8261719-152.8989258,226.7792969-37.2016602,87.9560547-56.0644531,181.390625-56.0644531,277.7060547,0,96.3134766,18.862793,189.7470703,56.0644531,277.7050781,35.9326172,84.953125,87.3759766,161.2529297,152.8999023,226.7802734,65.5239258,65.5214844,141.8232422,116.9638672,226.7792969,152.8974609,87.9550781,37.2011719,181.3886719,56.0644531,277.7050781,56.0644531,96.3168945,0,189.75-18.8632812,277.7050781-56.0644531,84.9584961-35.9355469,161.2583008-87.3779297,226.7792969-152.8994141,65.5224609-65.5234375,116.965332-141.8222656,152.8989258-226.7792969,37.2016602-87.9541016,56.0644531-181.3886719,56.0644531-277.7050781,0-16.8642578-.5908203-33.9033203-1.7548828-50.6435547-.2939453-4.21875-1.9174805-8.2373047-4.637207-11.4755859-35.6054688-42.390625-69.2700195-86.9921875-100.0581055-132.5644531-57.1875-84.6503906-106.3061523-175.1445312-145.9912109-268.9697266-15.0161133-35.5019531-28.9243164-72.1230469-41.3388672-108.8461914-1.3510742-3.9970703-3.9326172-7.465332-7.3745117-9.9072266-41.8203125-29.6660156-87.1020508-54.8920898-134.5888672-74.9770508-87.956543-37.2016602-181.390625-56.0644531-277.7050781-56.0644531Zm1599.1835938,810.7558594c-4.1152344,0-8.1757812,1.2695312-11.5966797,3.7041016-4.8583984,3.4580078-7.9208984,8.9013672-8.3515625,14.8486328-4.9648438,68.421875-14.3769531,136.8056641-27.9746094,203.2509766-7.0605469,34.5087891-15.4365234,69.3583984-24.8955078,103.5810547-1.4384766,5.2041016-.7119141,10.7666016,2.0136719,15.4267578,2.7255859,4.6591797,7.2177734,8.0185547,12.4580078,9.3154297,20.5986328,5.0986328,41.4775391,9.8183594,62.0595703,14.0292969,103.6582031,21.2119141,210.3476562,31.9667969,317.1054688,31.9667969,106.7568359,0,213.4462891-10.7548828,317.1074219-31.9667969,101.0214844-20.6728516,200.3886719-51.5185547,295.3417969-91.6796875,93.2255859-39.4316406,183.1474609-88.2392578,267.265625-145.0683594,83.3183594-56.2880859,161.6660156-120.9306641,232.8671875-192.1328125,71.2001953-71.1992188,135.84375-149.546875,192.1347656-232.8671875,56.828125-84.1201172,105.6357422-174.0429688,145.0664062-267.2695312,40.1630859-94.9560547,71.0078125-194.3237305,91.6787109-295.3408203,21.2109375-103.6567383,31.9667969-210.3461914,31.9667969-317.105957,0-106.7607422-10.7558594-213.4516602-31.9667969-317.1069336-20.6708984-101.0180664-51.5166016-200.3857422-91.6796875-295.3427734-39.4326172-93.2290039-88.2412109-183.1503906-145.0673828-267.2666016-56.2919922-83.3212891-120.9345703-161.6694336-192.1357422-232.8676758-71.2021484-71.2021484-149.5488281-135.8447266-232.8652344-192.1313477-84.1132812-56.8261719-174.0351562-105.6347656-267.2675781-145.0688477-94.9599609-40.1635742-194.3271484-71.0087891-295.3427734-91.6791992-103.6552734-21.2114258-210.3447266-31.9663086-317.1064453-31.9663086-106.7597656,0-213.4501953,10.7553711-317.1074219,31.9667969-101.0214844,20.671875-200.3886719,51.5175781-295.3408203,91.6791992-93.2333984,39.4355469-183.1552734,88.2436523-267.2666016,145.0688477-83.3144531,56.284668-161.6625977,120.9272461-232.8681641,192.1328125-71.2021484,71.2026367-135.8447266,149.550293-192.1323242,232.8671875-56.8266602,84.1137695-105.6347656,174.0361328-145.0683594,267.2685547-19.6748047,46.5175781-37.3369141,94.7314453-52.4956055,143.3032227-1.6079102,5.152832-1.0644531,10.7368164,1.5058594,15.4829102,2.5708008,4.746582,6.9506836,8.2519531,12.1450195,9.7207031,62.8994141,17.7841797,125.1333008,39.6347656,184.9731445,64.9453125,35.2060547,14.890625,70.4638672,31.3618164,104.7954102,48.9550781,2.8574219,1.4643555,5.9868164,2.2006836,9.121582,2.2006836,2.6860352,0,5.3764648-.5405273,7.9038086-1.6279297,5.4770508-2.3564453,9.6171875-7.0332031,11.2915039-12.7558594,13.0961914-44.762207,28.9697266-89.2866211,47.1777344-132.3359375,30.5566406-72.2446289,68.3759766-141.921875,112.4082031-207.097168,43.6118164-64.5556641,93.6992188-125.2617188,148.8701172-180.4316406,55.1640625-55.1660156,115.8701172-105.253418,180.4306641-148.8701172,65.1767578-44.0327148,134.8544922-81.8525391,207.0957031-112.4077148,150.3095703-63.574707,309.9755859-95.8105469,474.5615234-95.8120117,164.5849609,0,324.25,32.2353516,474.5615234,95.8110352,72.2402344,30.5556641,141.9179688,68.375,207.0966797,112.4077148,64.5566406,43.6152344,125.2626953,93.7016602,180.4296875,148.8696289,55.1689453,55.1689453,105.2558594,115.8740234,148.8701172,180.4306641,44.0341797,65.1796875,81.8535156,134.8569336,112.4082031,207.0966797,63.5751953,150.3120117,95.8115234,309.9775391,95.8115234,474.5610352,0,164.5864258-32.2353516,324.2519531-95.8105469,474.5605469-30.5527344,72.2368164-68.3720703,141.9145508-112.4072266,207.097168-43.6162109,64.5585938-93.703125,125.2636719-148.8710938,180.4316406-55.1689453,55.1699219-115.8740234,105.2568359-180.4306641,148.8681641-65.1787109,44.0322266-134.8554688,81.8525391-207.0957031,112.4091797-150.3105469,63.5761719-309.9755859,95.8115234-474.5615234,95.8115234-107.2734375,0-213.4736328-13.8583984-315.6503906-41.1914062-1.703125-.4550781-3.4404297-.6787109-5.1669922-.6787109Zm-360.8037109-162.2783203c-3.3671875,0-6.7402344.8496094-9.7880859,2.5595703-6.5273438,3.6640625-10.4628906,10.6669922-10.1982422,18.1474609.5205078,14.7138672.7841797,29.6064453.7841797,44.2626953,0,99.5673828-11.9511719,198.3632812-35.5214844,293.6445312-2.2167969,8.9589844,1.9853516,18.2724609,10.1708984,22.5380859,37.1650391,19.3691406,75.4277344,37.4042969,113.7255859,53.6035156,59.6289062,25.2207031,121.6425781,46.9824219,184.3203125,64.6787109,1.7841797.5039062,3.6132812.7529297,5.4345703.7529297,3.4072266,0,6.7910156-.8710938,9.8125-2.5732422,4.6386719-2.6113281,8.0439453-6.9638672,9.4628906-12.0927734,9.4580078-34.1796875,17.8291016-68.9833984,24.8808594-103.4453125,14.2304688-69.5429688,23.8330078-141.1201172,28.5419922-212.7431641.6064453-9.2109375-5.1708984-17.6396484-13.9804688-20.3974609-37.2998047-11.6787109-74.5058594-25.3378906-110.5859375-40.5976562-68.1201172-28.8125-134.0800781-64.1503906-196.0439453-105.03125-3.3320312-2.1982422-7.1699219-3.3066406-11.015625-3.3066406Zm-870.9663086-1086.4047852c-4.0625,0-8.081543,1.2373047-11.4882812,3.6279297-5.1479492,3.6123047-8.296875,9.4350586-8.5019531,15.7202148-.5664062,17.3427734-.8530273,34.847168-.8530273,52.0292969,0,67.1269531,4.3046875,134.9018555,12.7939453,201.4448242.8955078,7.0161133,5.4301758,13.0380859,11.9262695,15.8364258,109.4838867,47.1674805,207.9526367,114.0385742,292.6704102,198.7563477,86.2329102,86.2329102,153.9360352,186.6508789,201.2294922,298.4643555,48.965332,115.765625,73.7929688,238.7363281,73.7929688,365.4960938,0,43.7431641-3.0126953,87.6640625-8.9536133,130.5429688-.9672852,6.9794922,1.8100586,13.953125,7.3105469,18.3574219,33.262207,26.6298828,67.8979492,52.1386719,102.9438477,75.8183594,34.6484375,23.4052734,70.8085938,45.7675781,107.4765625,66.4667969,3.0410156,1.7158203,6.4316406,2.5830078,9.8320312,2.5830078,2.7265625,0,5.4580078-.5566406,8.0224609-1.6796875,5.7626953-2.5234375,10.0019531-7.6113281,11.4443359-13.734375,21.3125-90.4667969,32.1181641-184.1191406,32.1181641-278.3554688,0-27.4541016-.9238281-55.2070312-2.7460938-82.4892578-.3935547-5.8779297-3.3574219-11.2841797-8.1015625-14.7753906-49.671875-36.5527344-96.9150391-77.1435547-140.4179688-120.6455078-55.1679688-55.1679688-105.2548828-115.8730469-148.8691406-180.4316406-44.0332031-65.1777344-81.8525391-134.8544922-112.4086914-207.0957031-49.6411133-117.3647461-80.3476562-241.2290039-91.265625-368.1523438-.5053711-5.8691406-3.5722656-11.2177734-8.3828125-14.6176758-6.9091797-4.8842773-13.9506836-9.75-20.9282227-14.4643555-64.6430664-43.671875-133.7475586-81.1806641-205.3935547-111.4829102-31.6889648-13.402832-64.3461914-25.5957031-97.0649414-36.2387695-2.0219727-.6577148-4.1098633-.980957-6.1855469-.980957Zm1226.2250977,953.3999023c-4.421875,0-8.7890625,1.4658203-12.3671875,4.2802734-5.4306641,4.2724609-8.2714844,11.0439453-7.5146484,17.9121094,6.4189453,58.2050781,9.6738281,117.3476562,9.6738281,175.7822266,0,21.6474609-.4511719,43.671875-1.3398438,65.4599609-.3779297,9.2861328,5.6884766,17.6083984,14.6445312,20.0898438,104.5,28.9501953,213.2617188,43.6289062,323.265625,43.6289062,163.2392578,0,321.59375-31.9697266,470.6640625-95.0214844,71.6484375-30.3056641,140.7529297-67.8144531,205.3955078-111.484375,64.0322266-43.2597656,124.2421875-92.9375,178.9589844-147.6542969,54.7207031-54.7236328,104.3994141-114.9345703,147.6533203-178.9599609,43.671875-64.6425781,81.1806641-133.7480469,111.484375-205.394043,63.0507812-149.0688477,95.0205078-307.4233398,95.0205078-470.6640625,0-163.2402344-31.9697266-321.5947266-95.0214844-470.6655273-30.3046875-71.6479492-67.8134766-140.7524414-111.4833984-205.3935547-43.2607422-64.03125-92.9394531-124.2412109-147.6552734-178.9575195-54.7236328-54.722168-114.9335938-104.4003906-178.9589844-147.6547852-64.6425781-43.6713867-133.7460938-81.1801758-205.3945312-111.4838867-149.0693359-63.0517578-307.4228516-95.0214844-470.6640625-95.0214844-163.2431641.0014648-321.5966797,31.9711914-470.6640625,95.0219727-71.6503906,30.3051758-140.7558594,67.8144531-205.3955078,111.484375-64.0263672,43.2563477-124.2373047,92.934082-178.9589844,147.6542969-54.7138672,54.7138672-104.390625,114.9248047-147.652832,178.9584961-43.6743164,64.6455078-81.1826172,133.75-111.4838867,205.394043-19.4487305,45.980957-36.1757812,93.5605469-49.7163086,141.4179688-2.5292969,8.9394531,1.4301758,18.4428711,9.5581055,22.9428711,40.890625,22.6357422,81.1386719,47.2978516,119.6264648,73.3007812,27.7333984,18.7353516,55.3642578,38.7216797,82.1254883,59.4052734,3.5556641,2.7475586,7.8701172,4.175293,12.2333984,4.175293,2.3544922,0,4.7226562-.4155273,6.9941406-1.2641602,6.4814453-2.4204102,11.2519531-8.0195312,12.6123047-14.8027344,12.3339844-61.484375,31.0166016-122.0478516,55.53125-180.0063477,47.2929688-111.8149414,114.9960938-212.2329102,201.2294922-298.4648438,86.2333984-86.2329102,186.6523438-153.9360352,298.4658203-201.2299805,115.7636719-48.9648438,238.734375-73.7919922,365.4951172-73.7929688,126.7607422,0,249.7314453,24.8276367,365.4960938,73.7924805,111.8154297,47.2949219,212.234375,114.9985352,298.4658203,201.2299805,86.234375,86.2358398,153.9375,186.6538086,201.2285156,298.4638672,48.9648438,115.7661133,73.7919922,238.7368164,73.7919922,365.4960938,0,126.7583008-24.8271484,249.7290039-73.7910156,365.4956055-47.2919922,111.8129883-114.9951172,212.2304688-201.2294922,298.4658203-86.2324219,86.2304688-186.6503906,153.9345703-298.4658203,201.2294922-115.7646484,48.9648438-238.7353516,73.7919922-365.4951172,73.7919922-109.9287109,0-217.4414062-18.7607422-319.5507812-55.7607422-2.2158203-.8037109-4.5214844-1.1972656-6.8115234-1.1972656Zm-1205.7885742-644.3652344c-4.2807617,0-8.5302734,1.3735352-12.0683594,4.0493164-5.934082,4.4887695-8.8857422,11.9008789-7.6625977,19.2402344,3.1328125,18.7851562,6.6381836,37.6801758,10.418457,56.1591797,11.824707,57.7866211,27.1523438,115.6567383,45.5561523,172.0014648,1.2832031,3.9311523,3.7548828,7.3671875,7.0722656,9.8359375,28.2392578,21.0126953,55.2851562,44.3964844,80.3876953,69.5,66.4394531,66.4384766,118.6025391,143.8056641,155.0410156,229.9550781,28.8842773,68.2919922,46.9750977,140.3251953,53.7685547,214.0996094.3803711,4.1289062,2.034668,8.0371094,4.7333984,11.1845703,26.2480469,30.6123047,53.9443359,60.5224609,82.3203125,88.9003906,26.6748047,26.6728516,54.7963867,52.828125,83.5834961,77.7373047,3.6977539,3.1992188,8.3618164,4.8759766,13.0893555,4.8759766,2.480957,0,4.9790039-.4619141,7.3647461-1.4072266,6.9321289-2.7460938,11.7597656-9.1201172,12.5263672-16.5371094,3.3193359-32.1142578,5.0024414-64.8349609,5.0024414-97.2539062,0-125.4130859-24.5615234-247.0732422-73.0029297-361.6005859-46.7905273-110.6230469-113.7739258-209.9736328-199.0908203-295.2885742-76.1669922-76.1674805-163.8149414-137.9189453-260.5083008-183.5395508-2.7177734-1.2817383-5.6318359-1.9121094-8.53125-1.9121094Zm374.5581055-531.4272461c-2.7265625,0-5.4580078.5566406-8.0224609,1.6801758-5.7626953,2.5234375-10.0019531,7.6103516-11.4448242,13.7338867-21.3115234,90.4692383-32.1186523,184.1210938-32.1186523,278.3544922.0009766,27.4667969.9248047,55.2202148,2.7475586,82.4902344.3925781,5.8779297,3.3564453,11.2832031,8.1015625,14.7753906,49.6757812,36.5566406,96.9189453,77.1474609,140.4165039,120.6450195,55.168457,55.1689453,105.2558594,115.8740234,148.8701172,180.4306641,44.0322266,65.1777344,81.8515625,134.8549805,112.4082031,207.0976562,49.6386719,117.3583984,80.3447266,241.2226562,91.265625,368.1523438.5048828,5.8691406,3.5722656,11.2167969,8.3837891,14.6171875,6.9267578,4.8964844,13.9677734,9.7626953,20.9277344,14.4638672,64.6337891,43.6669922,133.7382812,81.1767578,205.3925781,111.484375,31.6855469,13.4013672,64.3427734,25.59375,97.0664062,36.2392578,2.0224609.6572266,4.1103516.9804688,6.1855469.9804688,4.0625,0,8.0820312-1.2373047,11.4882812-3.6279297,5.1484375-3.6123047,8.296875-9.4345703,8.5019531-15.7207031.5654297-17.328125.8525391-34.8339844.8525391-52.0292969,0-67.1279297-4.3056641-134.9042969-12.7958984-201.4453125-.8945312-7.0166016-5.4296875-13.0380859-11.9267578-15.8369141-109.4804688-47.1650391-207.9492188-114.0351562-292.6689453-198.7558594-86.234375-86.2353516-153.9375-186.6538086-201.2294922-298.4643555-48.9648438-115.7685547-73.7919922-238.7397461-73.7919922-365.4960938,0-43.7431641,3.0126953-87.6645508,8.9541016-130.5424805.9677734-6.9799805-1.8095703-13.9541016-7.3115234-18.3579102-33.2734375-26.6396484-67.909668-52.1474609-102.9448242-75.815918-34.640625-23.4033203-70.8007812-45.7670898-107.4755859-66.46875-3.0400391-1.7163086-6.4311523-2.5834961-9.831543-2.5834961Zm-285.2138672,850.6225586c-3.8959961,0-7.8100586,1.1347656-11.2207031,3.4472656-7.7773438,5.2753906-10.8330078,15.2529297-7.3442383,23.9785156,3.7724609,9.4345703,7.6708984,18.9121094,11.5869141,28.1708984,39.4326172,93.2285156,88.2407227,183.1503906,145.0683594,267.2675781,14.8256836,21.9443359,30.5078125,43.9199219,46.6103516,65.3173828,3.8774414,5.1513672,9.8579102,7.9746094,15.9892578,7.9755859,2.800293,0,5.6313477-.5888672,8.3095703-1.8134766,8.5419922-3.90625,13.2138672-13.2304688,11.2314453-22.4111328-9.3227539-43.15625-22.7939453-85.7138672-40.0410156-126.4912109-35.9335938-84.9580078-87.3769531-161.2568359-152.8999023-226.7802734-4.4345703-4.4345703-8.9819336-8.8632812-13.5166016-13.1679688-3.8266602-3.6318359-8.7851562-5.4931641-13.7734375-5.4931641Zm262.8276367-427.7573242c-3.3564453,0-6.7270508.84375-9.7822266,2.5576172-7.0908203,3.9780273-11.0673828,11.8520508-10.0605469,19.9194336,13.6923828,109.7124023,42.5146484,217.0703125,85.6655273,319.0913086,30.3051758,71.6489258,67.8139648,140.753418,111.484375,205.394043,43.2597656,64.0292969,92.9365234,124.2402344,147.6542969,178.9580078,32.1982422,32.1982422,66.6953125,62.9931641,102.5322266,91.5302734,3.6201172,2.8828125,8.0283203,4.3544922,12.4619141,4.3544922,3.3564453,0,6.7275391-.8427734,9.7822266-2.5566406,7.0908203-3.9775391,11.0673828-11.8525391,10.0605469-19.9199219-13.6914062-109.7128906-42.5126953-217.0703125-85.6640625-319.0908203-30.3037109-71.6469727-67.8125-140.7509766-111.4833984-205.3945312-43.2583008-64.0292969-92.9365234-124.2392578-147.6552734-178.9575195-32.1977539-32.1977539-66.6953125-62.9926758-102.5336914-91.5307617-3.6201172-2.8828125-8.0283203-4.3549805-12.4619141-4.3549805Zm802.4370117,491.5356445c-4.3320312,0-8.6455078,1.4042969-12.2265625,4.1699219-6.4726562,4.9980469-9.2509766,13.4335938-7.0136719,21.2988281,10.78125,37.921875,20.2158203,76.5410156,28.0419922,114.7861328,5.9052734,28.8574219,11.0820312,58.4121094,15.3857422,87.8447266,1.0361328,7.0859375,5.78125,13.0771484,12.4423828,15.7080078,108.4287109,42.8271484,223.1279297,64.5419922,340.9121094,64.5419922,125.4130859,0,247.0732422-24.5615234,361.6015625-73.0019531,110.625-46.7919922,209.9736328-113.7763672,295.2871094-199.0908203,85.3164062-85.3164062,152.3007812-184.6665039,199.0917969-295.2895508,48.4404297-114.5249023,73.0009766-236.1845703,73.0009766-361.6005859,0-125.4130859-24.5615234-247.0727539-73.0019531-361.5996094-46.7871094-110.6191406-113.7714844-209.9692383-199.0908203-295.2900391-85.3193359-85.3183594-184.6689453-152.3017578-295.2880859-199.090332-114.5292969-48.440918-236.1894531-73.0024414-361.6015625-73.0024414-125.4140625.0009766-247.0742188,24.5620117-361.6005859,73.0029297-110.6230469,46.7905273-209.9726562,113.7744141-295.2880859,199.0913086-85.3183594,85.3168945-152.3017578,184.6660156-199.0917969,295.2885742-27.7587891,65.6293945-47.8769531,134.3642578-59.796875,204.2958984-1.1992188,7.0380859,1.4433594,14.1821289,6.9355469,18.7441406,37.6210938,31.2568359,74.1240234,64.5332031,108.4951172,98.9047852,14.2460938,14.2470703,28.4707031,29.0327148,42.2802734,43.9458008,3.859375,4.168457,9.2119141,6.4130859,14.6796875,6.4130859,2.4101562,0,4.8417969-.4360352,7.1796875-1.3354492,7.6386719-2.940918,12.7148438-10.2387695,12.8144531-18.4228516,1.1445312-94.4453125,20.2548828-186.1425781,56.7988281-272.5454102,36.4404297-86.1513672,88.6025391-163.519043,155.0380859-229.9545898,66.4404297-66.4384766,143.8085938-118.6010742,229.9541016-155.0385742,89.1962891-37.7260742,183.9404297-56.8549805,281.6015625-56.8549805,97.6621094,0,192.40625,19.1289062,281.6015625,56.8540039,86.1464844,36.4375,163.5146484,88.6000977,229.9550781,155.0390625,66.4375,66.4414062,118.6005859,143.8085938,155.0380859,229.9545898,37.7246094,89.1938477,56.8535156,183.9379883,56.8535156,281.6000977,0,97.6616211-19.1289062,192.4057617-56.8535156,281.6010742-36.4375,86.1479492-88.6005859,163.515625-155.0380859,229.9541016-66.4384766,66.4375-143.8056641,118.6005859-229.9541016,155.0400391-89.1943359,37.7255859-183.9394531,56.8535156-281.6015625,56.8535156-97.6611328,0-192.40625-19.1279297-281.6015625-56.8535156-29.4199219-12.4443359-58.2832031-26.9755859-85.7851562-43.1904297-3.1474609-1.8554688-6.6582031-2.7714844-10.1552734-2.7714844Zm-526.5488281-735.8310547c-2.4814453,0-4.9785156.4614258-7.3642578,1.4067383-6.9316406,2.7470703-11.7607422,9.121582-12.5263672,16.5380859-3.3193359,32.1186523-5.0019531,64.8398438-5.0019531,97.2539062,0,125.4135742,24.5615234,247.0737305,73.0019531,361.6000977,46.7910156,110.6240234,113.7753906,209.9736328,199.0917969,295.2910156,76.1640625,76.1640625,163.8115234,137.9150391,260.5087891,183.5380859,2.7177734,1.2822266,5.6318359,1.9121094,8.53125,1.9121094,4.28125,0,8.5302734-1.3730469,12.0683594-4.0488281,5.9345703-4.4892578,8.8857422-11.9013672,7.6621094-19.2412109-3.1376953-18.8134766-6.6425781-37.7080078-10.4179688-56.1582031-11.8271484-57.7900391-27.1542969-115.6591797-45.5566406-172.0019531-1.2832031-3.9316406-3.7548828-7.3671875-7.0722656-9.8359375-28.2333984-21.0087891-55.2802734-44.3916016-80.390625-69.5009766-66.4384766-66.4394531-118.6005859-143.8066406-155.0371094-229.953125-28.8857422-68.293457-46.9755859-140.3276367-53.7685547-214.1000977-.3808594-4.1289062-2.0351562-8.0375977-4.7333984-11.1845703-26.2685547-30.6357422-53.9658203-60.5463867-82.3222656-88.9008789-26.6679688-26.6679688-54.7890625-52.8227539-83.5830078-77.737793-3.6972656-3.199707-8.3623047-4.8764648-13.0898438-4.8764648Zm904.0898438-598.25c-96.3164062,0-189.75,18.862793-277.7041016,56.0649414-84.9560547,35.9331055-161.2558594,87.3759766-226.7792969,152.8999023-65.5224609,65.5229492-116.9658203,141.8227539-152.9003906,226.7792969-37.2011719,87.9560547-56.0634766,181.3896484-56.0634766,277.7045898,0,16.8554688.5908203,33.894043,1.7548828,50.644043.2939453,4.2192383,1.9179688,8.2373047,4.6376953,11.4760742,35.6035156,42.3891602,69.2675781,86.9907227,100.0566406,132.5649414,57.1904297,84.6518555,106.3095703,175.1464844,145.9921875,268.9692383,15.0205078,35.5136719,28.9287109,72.1347656,41.3378906,108.8442383,1.3515625,3.9980469,3.9335938,7.4667969,7.375,9.9082031,41.8203125,29.6650391,87.1025391,54.8916016,134.5888672,74.9765625,87.9560547,37.2011719,181.3896484,56.0644531,277.7050781,56.0644531,96.3164062,0,189.75-18.8632812,277.7041016-56.0644531,84.9570312-35.9335938,161.2578125-87.3769531,226.7792969-152.9003906,65.5224609-65.5214844,116.9658203-141.8208008,152.9003906-226.7788086,37.2011719-87.9560547,56.0634766-181.3891602,56.0634766-277.7050781,0-96.3173828-18.8623047-189.7509766-56.0644531-277.7050781-35.9345703-84.956543-87.3769531-161.2558594-152.8994141-226.7783203-65.5214844-65.5229492-141.8222656-116.965332-226.7792969-152.8999023-87.9550781-37.2016602-181.3896484-56.0644531-277.7050781-56.0644531Zm-677.8828125,840.4394531c-2.8007812,0-5.6308594.5883789-8.3095703,1.8134766-8.5419922,3.9057617-13.2138672,13.2299805-11.2314453,22.4106445,9.3232422,43.1572266,22.7939453,85.7148438,40.0410156,126.4902344,35.9316406,84.9536133,87.375,161.2539062,152.8994141,226.7792969,4.4228516,4.4233398,8.9707031,8.8530273,13.5175781,13.168457,3.8261719,3.6323242,8.7841797,5.4931641,13.7724609,5.4936523,3.8964844,0,7.8105469-1.1347656,11.2207031-3.4477539,7.7773438-5.2744141,10.8339844-15.2524414,7.3447266-23.9780273-3.7519531-9.3823242-7.6494141-18.8603516-11.5869141-28.1704102-39.4335938-93.2299805-88.2421875-183.1513672-145.0683594-267.2675781-14.8183594-21.9331055-30.5-43.9091797-46.6103516-65.3164062-3.8769531-5.1518555-9.8574219-7.9755859-15.9892578-7.9755859Zm-819.4223633-562.2084961c-3.4072266,0-6.7905273.8710938-9.8129883,2.5727539-4.6381836,2.6113281-8.043457,6.9633789-9.4628906,12.0932617-9.4584961,34.1787109-17.8295898,68.9833984-24.8823242,103.4467773-14.2314453,69.5498047-23.8339844,141.1264648-28.5415039,212.7426758-.605957,9.2109375,5.1713867,17.6396484,13.9804688,20.3979492,37.3071289,11.6811523,74.5126953,25.3398438,110.5844727,40.5976562,68.1230469,28.8134766,134.0825195,64.1508789,196.0458984,105.0302734,3.3310547,2.1977539,7.1694336,3.3056641,11.0151367,3.3061523,3.3676758,0,6.7407227-.8491211,9.7880859-2.5595703,6.5273438-3.6640625,10.4624023-10.6665039,10.1977539-18.1474609-.5205078-14.7270508-.784668-29.6191406-.784668-44.2617188,0-99.5649414,11.9516602-198.3608398,35.5229492-293.644043,2.2167969-8.9599609-1.9858398-18.2729492-10.1713867-22.5385742-37.1787109-19.3759766-75.4414062-37.4106445-113.7260742-53.6035156-59.6298828-25.2211914-121.644043-46.9824219-184.3183594-64.6801758-1.7841797-.5039062-3.612793-.7524414-5.4345703-.7524414Zm-422.6938477,2072.8696289c-75.28125,0-148.3125-14.7441406-217.0649414-43.8251953-66.40625-28.0878906-126.043457-68.2958984-177.2548828-119.5068359-51.2128906-51.2128906-91.4208984-110.8496094-119.5073242-177.2539062-29.0805664-68.7519531-43.8261719-141.7832031-43.8261719-217.0654297,0-75.28125,14.7446289-148.3125,43.8256836-217.0644531,28.0864258-66.40625,68.2944336-126.0429688,119.5073242-177.2548828,51.2119141-51.2128906,110.8486328-91.4208984,177.2543945-119.5078125,68.7519531-29.0805664,141.7827148-43.8256836,217.0649414-43.8256836,75.2817383,0,148.3125,14.7446289,217.0644531,43.824707,66.4047852,28.0859375,126.0415039,68.2949219,177.2553711,119.5087891,51.2128906,51.2119141,91.4208984,110.8476562,119.5073242,177.2519531,29.0805664,68.7539062,43.8261719,141.7851562,43.8261719,217.0664062s-14.7446289,148.3125-43.8256836,217.0654297c-28.0869141,66.4042969-68.2949219,126.0419922-119.5073242,177.2548828-51.2138672,51.2128906-110.8510742,91.4208984-177.2543945,119.5068359-68.7548828,29.0800781-141.7861328,43.8251953-217.0649414,43.8251953Zm-.0009766-1105.3051758c-73.9335938,0-145.6542969,14.4799805-213.1694336,43.0366211-65.2089844,27.5800781-123.7773438,67.0683594-174.0786133,117.3671875-50.2958984,50.2958984-89.784668,108.8652344-117.3696289,174.0810547-28.5556641,67.5146484-43.034668,139.2353516-43.034668,213.1689453,0,73.9345703,14.4794922,145.6552734,43.0361328,213.1689453,27.5825195,65.2128906,67.0708008,123.78125,117.3681641,174.0791016,50.3012695,50.2998047,108.8696289,89.7880859,174.0791016,117.3681641,67.5126953,28.5556641,139.2338867,43.0351562,213.1699219,43.0351562,73.934082,0,145.6542969-14.4794922,213.1694336-43.0351562,65.2119141-27.5820312,123.7802734-67.0703125,174.0786133-117.3681641,50.2958984-50.2958984,89.784668-108.8652344,117.3696289-174.0791016,28.5556641-67.515625,43.034668-139.2363281,43.034668-213.1699219s-14.4794922-145.6542969-43.0361328-213.1699219c-27.5825195-65.2138672-67.0712891-123.7822266-117.3686523-174.0791016-50.2958984-50.2958984-108.8647461-89.7841797-174.0786133-117.3681641-67.5146484-28.5556641-139.2353516-43.0356445-213.1699219-43.0356445Zm.0009766,977.7700195c-58.0620117,0-114.3911133-11.3720703-167.4233398-33.8027344-51.215332-21.6611328-97.2133789-52.6728516-136.7158203-92.1748047-39.5004883-39.5029297-70.5131836-85.5009766-92.1757812-136.7167969-22.4296875-53.0292969-33.8022461-109.3583984-33.8022461-167.421875s11.3725586-114.3925781,33.8022461-167.4228516c21.6645508-51.2197266,52.6772461-97.2177734,92.1757812-136.7158203,39.4951172-39.4980469,85.4931641-70.5107422,136.715332-92.1767578,53.0322266-22.4306641,109.3613281-33.8027344,167.4228516-33.8027344,58.0620117,0,114.3911133,11.3720703,167.4223633,33.8027344,51.2216797,21.6660156,97.2192383,52.6787109,136.7163086,92.1767578,39.5009766,39.5,70.5136719,85.4980469,92.1762695,136.7148438,22.4287109,53.0292969,33.8022461,109.3583984,33.8037109,167.4228516,0,58.0615234-11.3735352,114.390625-33.8037109,167.4208984-21.6645508,51.2207031-52.6762695,97.2197266-92.1757812,136.71875-39.5,39.5-85.4980469,70.5117188-136.715332,92.1748047-53.0322266,22.4306641-109.3613281,33.8027344-167.4228516,33.8027344Zm-.0009766-850.234375c-56.7167969,0-111.7353516,11.1074219-163.5268555,33.0126953-50.0292969,21.1611328-94.9584961,51.4541016-133.5415039,90.0361328-38.5844727,38.5869141-68.8764648,83.5166016-90.0356445,133.5419922-21.9052734,51.7919922-33.012207,106.8095703-33.012207,163.5273438,0,56.7167969,11.1069336,111.7353516,33.012207,163.5253906,21.1591797,50.0263672,51.4516602,94.9560547,90.0366211,133.5419922,38.5849609,38.5839844,83.5146484,68.8769531,133.5405273,90.0361328,51.7919922,21.9052734,106.8105469,33.0126953,163.527832,33.0126953,56.7167969,0,111.7353516-11.1074219,163.5268555-33.0126953,50.0258789-21.1591797,94.9560547-51.4511719,133.5415039-90.0351562,38.5830078-38.5859375,68.8759766-83.515625,90.0356445-133.5419922,21.9047852-51.7910156,33.012207-106.8095703,33.0136719-163.5273438,0-56.7158203-11.1074219-111.7333984-33.0136719-163.5263672-21.1606445-50.0292969-51.4536133-94.9580078-90.0371094-133.5419922-38.5839844-38.5839844-83.5131836-68.8769531-133.5400391-90.0361328-51.7919922-21.9052734-106.8105469-33.0126953-163.527832-33.0126953Zm.0004883,752.1308594c-88.6826172,0-172.0585938-34.5351562-234.7685547-97.2441406-62.7094727-62.7119141-97.2446289-146.0878906-97.2446289-234.7685547,0-88.6826172,34.5351562-172.0585938,97.2451172-234.7705078,62.7084961-62.7080078,146.0839844-97.2431641,234.7675781-97.2431641s172.0600586,34.5351562,234.769043,97.2431641c62.7094727,62.7119141,97.2446289,146.0878906,97.2446289,234.7695312s-34.5351562,172.0576172-97.2451172,234.7695312c-62.7084961,62.7089844-146.0849609,97.2441406-234.7680664,97.2441406Zm-.0004883-654.0263672c-86.012207,0-166.8759766,33.4951172-227.6967773,94.3154297-60.8208008,60.8212891-94.315918,141.6855469-94.315918,227.6982422s33.4951172,166.8779297,94.315918,227.6962891c60.8208008,60.8212891,141.6850586,94.3164062,227.6972656,94.3164062,86.0126953,0,166.8774414-33.4951172,227.6972656-94.3164062,60.8208008-60.8212891,94.315918-141.6855469,94.315918-227.6972656,0-86.0146484-33.4951172-166.8789062-94.315918-227.6982422-60.8212891-60.8193359-141.6860352-94.3144531-227.6977539-94.3144531Zm.0004883,578.5615234c-68.5268555,0-132.9511719-26.6855469-181.4067383-75.140625-48.4560547-48.4560547-75.1420898-112.8808594-75.1420898-181.4082031,0-68.5263672,26.6855469-132.9521484,75.140625-181.4082031,48.4575195-48.4541016,112.8828125-75.1396484,181.4082031-75.140625,68.5268555,0,132.9511719,26.6855469,181.4067383,75.140625,48.4560547,48.4560547,75.1420898,112.8808594,75.1420898,181.4082031,0,68.5263672-26.6855469,132.9521484-75.140625,181.4082031-48.4575195,48.4550781-112.8828125,75.140625-181.4082031,75.140625Zm0-503.0976562c-65.8554688.0009766-127.7695312,25.6464844-174.3364258,72.2119141-46.5668945,46.5693359-72.2124023,108.4833984-72.2124023,174.3369141s25.6455078,127.7675781,72.2114258,174.3369141c46.5688477,46.5664062,108.4829102,72.2119141,174.3374023,72.2119141s127.7685547-25.6455078,174.3364258-72.2119141c46.5668945-46.5693359,72.2124023-108.4833984,72.2124023-174.3369141s-25.6455078-127.7675781-72.2114258-174.3369141c-46.5688477-46.5664062-108.4829102-72.2119141-174.3374023-72.2119141Zm0,445.0478516c-109.4526367,0-198.4985352-89.0458984-198.4985352-198.4990234s89.0458984-198.4990234,198.4985352-198.4990234,198.4985352,89.0458984,198.4985352,198.4990234-89.0458984,198.4990234-198.4985352,198.4990234Zm0-386.9980469c-103.9384766,0-188.4985352,84.5605469-188.4985352,188.4990234s84.5600586,188.4990234,188.4985352,188.4990234,188.4985352-84.5605469,188.4985352-188.4990234-84.5600586-188.4990234-188.4985352-188.4990234Zm0,307.9960938c-65.8911133,0-119.4975586-53.6054688-119.4975586-119.4970703,0-65.8896484,53.6064453-119.4960938,119.4975586-119.4960938,65.8901367,0,119.4960938,53.6054688,119.4975586,119.4960938,0,65.890625-53.6064453,119.4970703-119.4975586,119.4970703Zm0-228.9931641c-60.3774414,0-109.4975586,49.1201172-109.4975586,109.4960938,0,60.3769531,49.1201172,109.4970703,109.4975586,109.4970703,60.3710938,0,109.4912109-49.1191406,109.4975586-109.4951172-.0014648-60.3789062-49.1220703-109.4980469-109.4975586-109.4980469Zm1920.0004883-412.8515625c-75.28125,0-148.3115234-14.7441406-217.0634766-43.8242188-66.4052734-28.0869141-126.0439453-68.2949219-177.2578125-119.5083008-51.2119141-51.2119141-91.4189453-110.8491211-119.5058594-177.2543945-29.0810547-68.7495117-43.8261719-141.7807617-43.8261719-217.0649414,0-75.2817383,14.7451172-148.3129883,43.8251953-217.0649414,28.0859375-66.4047852,68.2939453-126.0415039,119.5068359-177.2543945,51.2138672-51.2143555,110.8515625-91.4223633,177.2548828-119.5073242,68.7519531-29.0805664,141.7822266-43.8256836,217.0654297-43.8256836,75.28125,0,148.3115234,14.7446289,217.0634766,43.824707,66.40625,28.0869141,126.0439453,68.2958984,177.2578125,119.5078125,51.2119141,51.2119141,91.4189453,110.8491211,119.5058594,177.2548828,29.0800781,68.7543945,43.8251953,141.7856445,43.8251953,217.0644531,0,75.2841797-14.7441406,148.3154297-43.8242188,217.0644531-28.0869141,66.4047852-68.2939453,126.0419922-119.5068359,177.2553711-51.2119141,51.2114258-110.8486328,91.4204102-177.2558594,119.5073242-68.7539062,29.0800781-141.7851562,43.8251953-217.0644531,43.8251953Zm-.0009766-1105.3041992c-73.9345703,0-145.6552734,14.4790039-213.1699219,43.0356445-65.2128906,27.5820312-123.78125,67.0708008-174.078125,117.3681641-50.2978516,50.296875-89.7871094,108.8652344-117.3691406,174.0800781-28.5566406,67.5146484-43.0351562,139.2353516-43.0351562,213.168457,0,73.934082,14.4794922,145.6547852,43.0361328,213.1694336,27.5830078,65.2128906,67.0703125,123.78125,117.3681641,174.0795898,50.2949219,50.2949219,108.8632812,89.7836914,174.078125,117.3686523,67.515625,28.5556641,139.2373047,43.0341797,213.1708984,43.0341797s145.6542969-14.4790039,213.1708984-43.0351562c65.2099609-27.5825195,123.7783203-67.0703125,174.0771484-117.3676758,50.296875-50.296875,89.7861328-108.8657227,117.3691406-174.0800781,28.5556641-67.5141602,43.0341797-139.2348633,43.0341797-213.1694336,0-73.9360352-14.4794922-145.6567383-43.0351562-213.1694336-27.5820312-65.2124023-67.0703125-123.7817383-117.3681641-174.0800781-50.2939453-50.2944336-108.8623047-89.7827148-174.078125-117.3676758-67.515625-28.5561523-139.2373047-43.034668-213.1708984-43.034668Zm.0009766,977.769043c-58.0615234.0009766-114.3916016-11.3720703-167.4248047-33.8027344-51.2197266-21.6660156-97.2177734-52.6782227-136.7158203-92.175293-39.4980469-39.5-70.5097656-85.4980469-92.1738281-136.7172852-22.4306641-53.027832-33.8037109-109.3564453-33.8037109-167.4213867,0-58.0625,11.3730469-114.3916016,33.8027344-167.4223633,21.6660156-51.2207031,52.6777344-97.2182617,92.1748047-136.7163086,39.5-39.4985352,85.4980469-70.5112305,136.7167969-92.1757812,53.0283203-22.4291992,109.3564453-33.8022461,167.4179688-33.8022461,58.0634766-.0009766,114.3935547,11.371582,167.4277344,33.8022461,51.21875,21.6630859,97.2158203,52.6757812,136.7177734,92.1757812,39.4980469,39.5,70.5107422,85.4980469,92.1738281,136.7163086,22.4296875,53.0297852,33.8027344,109.359375,33.8027344,167.421875,0,58.0668945-11.3730469,114.3959961-33.8027344,167.4228516-21.6640625,51.2197266-52.6757812,97.2177734-92.1738281,136.7158203-39.5,39.4985352-85.4980469,70.5112305-136.7167969,92.1757812-53.03125,22.4301758-109.3603516,33.8027344-167.4228516,33.8027344Zm0-850.234375c-56.71875.0009766-111.7373047,11.1083984-163.5292969,33.0131836-50.0283203,21.1606445-94.9570312,51.4541016-133.5400391,90.0371094-38.5820312,38.5820312-68.875,83.5117188-90.0361328,133.5400391-21.9052734,51.7919922-33.0126953,106.8110352-33.0126953,163.5273438,0,56.7182617,11.1074219,111.7363281,33.0136719,163.5268555,21.1572266,50.0239258,51.4501953,94.9541016,90.0361328,133.5405273,38.5859375,38.5859375,83.515625,68.8789062,133.5410156,90.0366211,51.7919922,21.9052734,106.8105469,33.0126953,163.5273438,33.0136719,56.7167969-.0009766,111.7353516-11.1083984,163.5283203-33.0141602,50.0273438-21.1606445,94.9560547-51.4526367,133.5390625-90.0361328,38.5859375-38.5874023,68.8789062-83.5170898,90.0361328-133.5410156,21.9052734-51.7895508,33.0126953-106.8076172,33.0126953-163.5268555,0-56.7167969-11.1074219-111.7353516-33.0126953-163.5268555-21.1572266-50.0239258-51.4501953-94.9536133-90.0351562-133.5410156-38.5869141-38.5849609-83.5166016-68.8769531-133.5419922-90.0361328-51.7871094-21.9033203-106.8046875-33.0107422-163.5263672-33.0131836h0Zm0,752.1313477c-88.6835938,0-172.0595703-34.5356445-234.7695312-97.2446289-62.7089844-62.7089844-97.2441406-146.0849609-97.2441406-234.769043,0-88.6845703,34.5351562-172.0600586,97.2441406-234.7685547,62.7080078-62.7084961,146.0839844-97.2446289,234.7685547-97.2451172,88.6835938,0,172.0595703,34.5351562,234.7695312,97.2436523,62.7089844,62.7099609,97.2441406,146.0869141,97.2441406,234.7695312,0,88.6845703-34.5351562,172.0600586-97.2441406,234.7685547-62.7099609,62.7094727-146.0849609,97.2456055-234.7685547,97.2456055Zm-.0009766-654.0273438c-86.0126953,0-166.8779297,33.4951172-227.6972656,94.3164062-60.8203125,60.8193359-94.3154297,141.684082-94.3154297,227.6972656,0,86.0136719,33.4951172,166.878418,94.3154297,227.6977539,60.8212891,60.8203125,141.6865234,94.315918,227.6982422,94.315918,86.0126953,0,166.8769531-33.4956055,227.6972656-94.315918s94.3154297-141.6850586,94.3154297-227.6982422-33.4951172-166.8779297-94.3154297-227.6982422c-60.8212891-60.8198242-141.6865234-94.3149414-227.6982422-94.3149414Zm.0009766,578.5620117c-68.5273438,0-132.9521484-26.6860352-181.4072266-75.1416016-48.4560547-48.4560547-75.1416016-112.8803711-75.1416016-181.4067383s26.6855469-132.9516602,75.1416016-181.4077148c48.4550781-48.4555664,112.8798828-75.1416016,181.40625-75.1416016,68.5273438,0,132.9521484,26.6860352,181.4072266,75.1416016,48.4560547,48.4560547,75.1416016,112.8803711,75.1416016,181.4072266s-26.6855469,132.9511719-75.1416016,181.4072266c-48.4550781,48.4555664-112.8798828,75.1416016-181.40625,75.1416016Zm-.0009766-503.0976562c-65.8544922,0-127.7685547,25.6455078-174.3359375,72.2128906-46.5673828,46.5688477-72.2119141,108.4824219-72.2119141,174.3364258,0,65.8554688,25.6455078,127.7695312,72.2138672,174.3359375,46.5634766,46.5668945,108.4775391,72.2124023,174.3349609,72.2124023,65.8544922,0,127.7685547-25.6455078,174.3359375-72.2128906,46.5673828-46.5688477,72.2119141-108.4824219,72.2119141-174.3359375,0-65.8554688-25.6455078-127.7695312-72.2138672-174.3359375-46.5654297-46.5673828-108.4794922-72.2128906-174.3349609-72.2128906Zm.0009766,445.0483398c-53.0205078,0-102.8681641-20.6474609-140.3613281-58.1386719-37.4902344-37.4921875-58.1376953-87.340332-58.1376953-140.3603516,0-53.0209961,20.6474609-102.8686523,58.1376953-140.3598633,37.4931641-37.4912109,87.3398438-58.1386719,140.3603516-58.1386719,109.4521484,0,198.4990234,89.0458984,198.4990234,198.4980469,0,109.4526367-89.0458984,198.4995117-198.4980469,198.4995117Zm-.0009766-386.9975586c-50.3505859,0-97.6865234,19.6074219-133.2880859,55.2099609-35.6025391,35.6020508-55.2099609,82.9379883-55.2099609,133.2885742,0,50.3500977,19.6074219,97.6860352,55.2099609,133.2890625,35.6035156,35.6025391,82.9394531,55.2099609,133.2890625,55.2099609,103.9384766,0,188.4980469-84.5610352,188.4980469-188.4995117,0-103.9379883-84.5605469-188.4980469-188.4990234-188.4980469Zm.0009766,307.9946289c-65.8916016,0-119.4970703-53.605957-119.4970703-119.4960938,0-65.8911133,53.6054688-119.4970703,119.4960938-119.4970703,65.8916016,0,119.4970703,53.605957,119.4970703,119.496582s-53.6054688,119.496582-119.4960938,119.496582Zm-.0009766-228.9931641c-60.3759766,0-109.4960938,49.1201172-109.4960938,109.4970703,0,60.3759766,49.1201172,109.4960938,109.4970703,109.4960938,60.3759766,0,109.4960938-49.1201172,109.4960938-109.496582s-49.1201172-109.496582-109.4970703-109.496582Z"/></g><g id="back"><circle class="cls-1" cx="3976.9594585" cy="1583.4304421" r="88.0741678"/><circle class="cls-1" cx="2056.9594585" cy="2663.4304421" r="88.0741678"/></g></svg>